<svg xmlns="http://www.w3.org/2000/svg" viewBox="0 0 243.15 153.51"><defs><style>.a,.b,.c,.d{fill:#080b3c;stroke-miterlimit:10;stroke-width:0.5px;}.a{stroke:#000;}.b{stroke:#2e69ff;}.c{stroke:#4000d0;}.d{stroke:#d000c7;}.e{font-size:7.69px;}.e,.f,.g,.h{fill:#fff;}.e,.f,.h{font-family:ArialMT, Arial;}.f{font-size:7.69px;}.g{font-size:24.37px;font-family:Arial-BoldMT, Arial;font-weight:700;}.h{font-size:9.58px;}</style></defs><rect class="a" x="0.25" y="0.25" width="242.65" height="153.01" rx="9.25"/><path class="a" d="M9.25,0A9.24,9.24,0,0,0,.43,6.47,82.31,82.31,0,0,1,13.54,0Z" transform="translate(0.25 0.25)"/><path class="a" d="M9.25,153h4.29A80.65,80.65,0,0,1,.43,146.54,9.24,9.24,0,0,0,9.25,153Z" transform="translate(0.25 0.25)"/><path class="a" d="M13.2,39.53a129.65,129.65,0,0,1,9.41-12.11l-.32.37h-.07A42.53,42.53,0,0,0,0,38.94V69.41C1.63,59.66,6.32,49.59,13.2,39.53Z" transform="translate(0.25 0.25)"/><path class="a" d="M64.8,27.8h-.07l-.33-.37a128,128,0,0,1,9.42,12.11c8.55,12.5,13.73,25,13.84,36.94v.37c0,11.54-4.79,23.67-12.82,35.79l-.5.76-.52.76-.41.59a130.2,130.2,0,0,1-8.56,11l-.13.14.15,0c21.44-3.5,38-24.08,38-49S86.31,31.3,64.8,27.8Z" transform="translate(0.25 0.25)"/><path class="b" d="M125.23,76.51A82.07,82.07,0,0,0,72.82,0H13.54A82.31,82.31,0,0,0,.43,6.47,9.13,9.13,0,0,0,0,9.25V32A46.64,46.64,0,0,1,28.74,22H29l.21,0,.23.05.25.09.27.12.27.17.26.2.23.24.2.27.16.27.12.27.07.26,0,.23,0,.21v.27l-.09.56,0,.15,0,.11,0,.07,0,.05,0,.05,0,0-.07.13-.12.19-.06.1,0,0-.11.14-.1.1-.07.08-.38.39-.53.56-.37.39-.47.5-.24.26-.48.53-.5.55-.26.28-.51.58-.27.3a124.8,124.8,0,0,0-9,11.62l-.24.35-.48.71-.47.71C9,55.5,4.61,66.61,4.61,76.83v.33c.09,9.81,4.16,20.43,11,31.18l.46.71.7,1.07.48.71.24.35a124.63,124.63,0,0,0,9,11.61l.52.59.26.29.51.56.49.54.48.52c.08.09.16.17.23.26l.47.49.49.51.33.34.35.37.14.17.07.1.15.23,0,.06,0,.05,0,.07,0,.06,0,.11,0,.16.12.47v.57l0,.25-.08.28-.12.3-.17.31-.23.3-.26.26-.3.22-.3.17-.29.11-.27.08-.24,0h-.31A46.64,46.64,0,0,1,0,121.63v22.14a9,9,0,0,0,.43,2.77A80.65,80.65,0,0,0,13.54,153H72.82A82,82,0,0,0,125.23,76.51ZM50,94.09v9.2a1.3,1.3,0,0,1-1.3,1.3H37.77a1.3,1.3,0,0,1-1.3-1.3v-9.2a.27.27,0,0,0-.28-.27H24.11a1.3,1.3,0,0,1-1.3-1.3V86.3a1.3,1.3,0,0,1,1.3-1.3H36.19a.28.28,0,0,0,.28-.28V80.58a.27.27,0,0,0-.28-.27H24.11a1.3,1.3,0,0,1-1.3-1.3V72.17a1.3,1.3,0,0,1,1.3-1.3h7.81a.28.28,0,0,0,.13,0,.27.27,0,0,0,.12-.37L21.69,51a1.32,1.32,0,0,1-.15-.62,1.3,1.3,0,0,1,1.3-1.3h9.93a1.28,1.28,0,0,1,1.14.68l9.23,17a.43.43,0,0,0,.12.11.28.28,0,0,0,.37-.11l9.2-17A1.31,1.31,0,0,1,54,49.08h10.2a1.36,1.36,0,0,1,.62.16A1.3,1.3,0,0,1,65.3,51L54.6,70.46a.2.2,0,0,0,0,.13.28.28,0,0,0,.28.28h7.75a1.3,1.3,0,0,1,1.3,1.3V79a1.3,1.3,0,0,1-1.3,1.3H50.24a.27.27,0,0,0-.28.27v4.14a.28.28,0,0,0,.28.28H62.59a1.3,1.3,0,0,1,1.3,1.3v6.22a1.3,1.3,0,0,1-1.3,1.3H50.24A.27.27,0,0,0,50,94.09Zm8.32,37.55H58l-.24,0-.27-.08-.29-.11-.3-.17-.3-.22-.27-.26-.22-.3-.17-.31-.12-.3-.08-.28,0-.25,0-.22v-.35l.12-.47,0-.16,0-.11,0-.06,0-.07,0-.05,0-.06.15-.23.07-.1.14-.17.35-.37.33-.34.49-.51.46-.49.24-.26.48-.52.49-.54.51-.56.25-.29.53-.59a124.63,124.63,0,0,0,9-11.61l.24-.35.48-.71.7-1.07.46-.71c6.88-10.75,10.95-21.37,11-31.18v-.33c0-10.22-4.36-21.33-11.73-32.56l-.47-.71-.48-.71-.24-.35a124.8,124.8,0,0,0-9-11.62l-.27-.3L59.67,30l-.25-.28-.5-.55-.48-.53-.24-.26-.47-.5-.37-.39-.54-.56-.37-.39-.08-.08-.09-.1-.11-.14,0,0-.07-.1L56,25.88l-.07-.13,0,0,0-.05v-.05l0-.07,0-.11,0-.15-.1-.56v-.27l0-.21,0-.23.08-.26.12-.27.16-.27.2-.27.23-.24.26-.2.27-.17.27-.12.25-.09.23-.05L58,22h.27c27.61,0,49.88,24.59,49.88,54.81S85.89,131.64,58.28,131.64Z" transform="translate(0.25 0.25)"/><path class="a" d="M22.3,125.89l-.13-.14a128.24,128.24,0,0,1-8.57-11l-.4-.59-.52-.76-.5-.76C5.85,103.07,1.54,93.51,0,84.23v30.52a42.47,42.47,0,0,0,22.15,11.12Z" transform="translate(0.25 0.25)"/><path class="c" d="M22.22,27.8h.07l.32-.37A129.65,129.65,0,0,0,13.2,39.53C6.32,49.59,1.63,59.66,0,69.41V84.23c1.54,9.28,5.85,18.84,12.18,28.4l.5.76.52.76.4.59a128.24,128.24,0,0,0,8.57,11l.13.14-.15,0A42.47,42.47,0,0,1,0,114.75v6.88a46.64,46.64,0,0,0,28.74,10h.31l.24,0,.27-.08.29-.11.3-.17.3-.22.26-.26.23-.3.17-.31.12-.3.08-.28,0-.25v-.57l-.12-.47,0-.16,0-.11,0-.06,0-.07,0-.05,0-.06-.15-.23-.07-.1-.14-.17-.35-.37-.33-.34-.49-.51-.47-.49c-.07-.09-.15-.17-.23-.26l-.48-.52-.49-.54-.51-.56-.26-.29-.52-.59a124.63,124.63,0,0,1-9-11.61l-.24-.35-.48-.71-.7-1.07-.46-.71C8.77,97.59,4.7,87,4.61,77.16v-.33C4.61,66.61,9,55.5,16.34,44.27l.47-.71.48-.71.24-.35a124.8,124.8,0,0,1,9-11.62l.27-.3.51-.58.26-.28.5-.55.48-.53.24-.26.47-.5.37-.39.53-.56.38-.39.07-.08.1-.1.11-.14,0,0,.06-.1.12-.19.07-.13,0,0,0-.05,0-.05,0-.07,0-.11,0-.15.09-.56v-.27l0-.21,0-.23-.07-.26-.12-.27-.16-.27-.2-.27-.23-.24-.26-.2L30,22.33l-.27-.12-.25-.09-.23-.05L29,22h-.27A46.64,46.64,0,0,0,0,32v6.9A42.53,42.53,0,0,1,22.22,27.8Z" transform="translate(0.25 0.25)"/><path class="c" d="M58.28,22H58l-.21,0-.23.05-.25.09-.27.12-.27.17-.26.2-.23.24-.2.27-.16.27-.12.27-.08.26,0,.23,0,.21v.27l.1.56,0,.15,0,.11,0,.07v.05l0,.05,0,0,.07.13.11.19.07.1,0,0,.11.14.09.1.08.08.37.39.54.56.37.39.47.5.24.26.48.53.5.55.25.28.52.58.27.3a124.8,124.8,0,0,1,9,11.62l.24.35.48.71.47.71C78.05,55.5,82.4,66.61,82.41,76.83v.33c-.09,9.81-4.16,20.43-11,31.18l-.46.71-.7,1.07-.48.71-.24.35a124.63,124.63,0,0,1-9,11.61l-.53.59-.25.29-.51.56-.49.54-.48.52-.24.26-.46.49-.49.51-.33.34-.35.37-.14.17-.07.1-.15.23,0,.06,0,.05,0,.07,0,.06,0,.11,0,.16-.12.47v.35l0,.22,0,.25.08.28.12.3.17.31.22.3.27.26.3.22.3.17.29.11.27.08.24,0h.31c27.61,0,49.88-24.59,49.88-54.8S85.89,22,58.28,22Zm6.59,103.84-.15,0,.13-.14a130.2,130.2,0,0,0,8.56-11l.41-.59.52-.76.5-.76c8-12.12,12.82-24.25,12.82-35.79v-.37C87.55,64.56,82.37,52,73.82,39.53A128,128,0,0,0,64.4,27.42l.33.37h.07c21.51,3.5,38.11,24.08,38.11,49S86.31,122.37,64.87,125.87Z" transform="translate(0.25 0.25)"/><path class="d" d="M63.89,92.52V86.3a1.3,1.3,0,0,0-1.3-1.3H50.24a.28.28,0,0,1-.28-.28V80.58a.27.27,0,0,1,.28-.27H62.59a1.3,1.3,0,0,0,1.3-1.3V72.17a1.3,1.3,0,0,0-1.3-1.3H54.84a.28.28,0,0,1-.28-.28.2.2,0,0,1,0-.13L65.3,51a1.3,1.3,0,0,0-.51-1.77,1.36,1.36,0,0,0-.62-.16H54a1.31,1.31,0,0,0-1.14.68l-9.2,17a.28.28,0,0,1-.37.11.43.43,0,0,1-.12-.11l-9.23-17a1.28,1.28,0,0,0-1.14-.68H22.84a1.3,1.3,0,0,0-1.3,1.3,1.32,1.32,0,0,0,.15.62L32.17,70.46a.27.27,0,0,1-.12.37.28.28,0,0,1-.13,0H24.11a1.3,1.3,0,0,0-1.3,1.3V79a1.3,1.3,0,0,0,1.3,1.3H36.19a.27.27,0,0,1,.28.27v4.14a.28.28,0,0,1-.28.28H24.11a1.3,1.3,0,0,0-1.3,1.3v6.22a1.3,1.3,0,0,0,1.3,1.3H36.19a.27.27,0,0,1,.28.27v9.2a1.3,1.3,0,0,0,1.3,1.3H48.66a1.3,1.3,0,0,0,1.3-1.3v-9.2a.27.27,0,0,1,.28-.27H62.59A1.3,1.3,0,0,0,63.89,92.52Z" transform="translate(0.25 0.25)"/><text class="e" transform="translate(88.81 66.28)">Unofficial</text><text class="f" transform="translate(130.68 66.37)">CLUB</text><text class="g" transform="translate(89.43 87.24)">JPYC</text><text class="h" transform="translate(9.64 140.85)"><tspan xml:space="preserve">0x4f542fb9544f53f047233f5cf4f4a84372fdabf9</tspan></text><text class="h" transform="translate(9.64 130.85)"><tspan xml:space="preserve">Member's ID: 0</tspan></text></svg>