<svg xmlns="http://www.w3.org/2000/svg" viewBox="0 0 153.51 243.15"><defs><style>.a{fill:#ff005d;}.a,.e{stroke:#8b1f00;}.a,.b,.c,.d,.e{stroke-miterlimit:10;stroke-width:0.5px;}.b,.c,.e{fill:none;}.b{stroke:#000;}.c,.d{stroke:#adff17;}.d,.f,.g,.h,.i{fill:#fff;}.f{font-size:7.69px;}.f,.g,.i{font-family:ArialMT, Arial;}.g{font-size:7.69px;}.h{font-size:24.37px;font-family:Arial-BoldMT, Arial;font-weight:700;}.i{font-size:9.58px;}</style></defs><rect class="a" x="0.25" y="0.25" width="153.01" height="242.65" rx="9.25"/><path class="b" d="M60.41,143.65h-.06l-.27-.31a109.79,109.79,0,0,1,8,10.33c7.3,10.67,11.72,21.35,11.81,31.52v.31c0,9.85-4.09,20.2-10.94,30.54l-.43.65c-.14.22-.29.43-.44.65l-.35.51a108.52,108.52,0,0,1-7.31,9.39l-.1.12.12,0c18.3-3,32.47-20.54,32.47-41.84S78.77,146.64,60.41,143.65Z" transform="translate(0.25 0.25)"/><path class="b" d="M24,227.33l.13,0-.11-.12a110.52,110.52,0,0,1-7.31-9.39l-.35-.51-.44-.65-.43-.65C8.66,205.69,4.57,195.34,4.57,185.49v-.31c.09-10.17,4.51-20.85,11.8-31.52a109.85,109.85,0,0,1,8-10.33l-.28.31h-.06A37.45,37.45,0,0,0,0,159V212A37.32,37.32,0,0,0,24,227.33Z" transform="translate(0.25 0.25)"/><path class="c" d="M112,185.21a70,70,0,0,0-112-56v22.77a40.52,40.52,0,0,1,29.64-13.22h.23l.18,0,.2,0,.22.08.22.1.23.14.22.18.2.2.17.23.14.23.1.23.07.22,0,.2,0,.18V141l-.08.48,0,.13,0,.09v.06l0,0,0,0v0l-.07.11-.09.16-.06.09,0,0-.09.12-.08.09-.06.06-.32.34-.46.47-.32.34-.4.42a2.09,2.09,0,0,1-.2.22l-.41.46-.43.46c-.07.08-.14.17-.22.25L28,146l-.22.26a105.16,105.16,0,0,0-7.71,9.91l-.21.3-.4.61-.41.6c-6.29,9.59-10,19.06-10,27.79v.28c.07,8.37,3.54,17.43,9.42,26.61l.39.6.59.91.41.61.21.3a103.31,103.31,0,0,0,7.7,9.9l.45.51.22.25.43.48.42.46.41.44.2.21.4.42.42.44.28.29.3.31.12.15.06.09.13.2,0,.05,0,0,0,.07v.05l0,.1,0,.13.1.4v.49l0,.21-.07.24-.1.26-.15.26-.19.25-.23.23-.25.19-.26.14-.25.1-.23.06-.2,0-.18,0h-.09A40.52,40.52,0,0,1,0,219V233.4a9.25,9.25,0,0,0,9.25,9.25H82A70,70,0,0,0,112,185.21Zm-64.23,15v7.84a1.1,1.1,0,0,1-1.11,1.11H37.35a1.11,1.11,0,0,1-1.11-1.11v-7.84A.23.23,0,0,0,36,200H25.69a1.1,1.1,0,0,1-1.1-1.11v-5.31a1.1,1.1,0,0,1,1.1-1.1H36a.23.23,0,0,0,.23-.24v-3.53a.23.23,0,0,0-.23-.24H25.69a1.11,1.11,0,0,1-1.1-1.11v-5.83a1.1,1.1,0,0,1,1.1-1.11h6.67a.2.2,0,0,0,.11,0,.24.24,0,0,0,.1-.32l-8.94-16.61a1.18,1.18,0,0,1-.13-.52,1.11,1.11,0,0,1,1.11-1.11h8.48a1.1,1.1,0,0,1,1,.58l7.88,14.52A.2.2,0,0,0,42,177a.24.24,0,0,0,.32-.09l7.85-14.52a1.1,1.1,0,0,1,1-.58h8.69a1.14,1.14,0,0,1,.54.14,1.1,1.1,0,0,1,.44,1.5l-9.14,16.6a.2.2,0,0,0,0,.11.23.23,0,0,0,.23.24h6.62a1.11,1.11,0,0,1,1.11,1.11v5.83a1.11,1.11,0,0,1-1.11,1.11H48a.24.24,0,0,0-.24.24v3.53a.24.24,0,0,0,.24.24H58.53a1.11,1.11,0,0,1,1.11,1.1v5.31A1.11,1.11,0,0,1,58.53,200H48A.24.24,0,0,0,47.75,200.22Zm7.1,32h-.08l-.18,0-.21,0-.23-.06-.25-.1-.25-.14-.26-.19-.23-.23-.19-.25-.14-.26-.11-.26-.06-.24,0-.21v-.49l.11-.4,0-.13,0-.1,0-.05,0-.07,0,0,0-.05.13-.2.06-.09.12-.15.3-.31.28-.29.42-.44.39-.42.2-.21.41-.44.42-.46.43-.48c.08-.08.15-.17.22-.25l.45-.51a105,105,0,0,0,7.71-9.9l.2-.3.41-.61.6-.91.39-.6c5.87-9.18,9.34-18.24,9.42-26.61v-.28c0-8.73-3.72-18.2-10-27.79l-.4-.6-.41-.61-.2-.3a105.16,105.16,0,0,0-7.71-9.91l-.23-.26-.44-.49c-.07-.08-.14-.17-.22-.25l-.42-.46-.42-.46-.2-.22-.4-.42-.32-.34-.45-.47-.32-.34-.07-.06-.08-.09-.09-.12,0,0-.05-.09-.1-.16-.06-.11,0,0,0,0v0l0-.06,0-.09,0-.13-.08-.48v-.23l0-.18,0-.2.07-.22.09-.23.14-.23.17-.23.2-.2.22-.18.23-.14.23-.1.21-.08.2,0,.18,0h.23c23.56,0,42.57,21,42.57,46.77S78.41,232.26,54.85,232.26Z" transform="translate(0.25 0.25)"/><path class="d" d="M24.08,143.65h.06l.28-.31a109.85,109.85,0,0,0-8,10.33C9.09,164.33,4.67,175,4.58,185.18v.31c0,9.85,4.09,20.2,10.94,30.54l.43.65.44.65.35.51A110.52,110.52,0,0,0,24,227.23l.11.12-.13,0A37.32,37.32,0,0,1,0,212v7a40.52,40.52,0,0,0,29.64,13.22h.09l.18,0,.2,0,.23-.06.25-.1.26-.14.25-.19.23-.23.19-.25.15-.26.1-.26.07-.24,0-.21v-.49l-.1-.4,0-.13,0-.1v-.05l0-.07,0,0,0-.05-.13-.2-.06-.09-.12-.15-.3-.31-.28-.29-.42-.44-.4-.42-.2-.21-.41-.44-.42-.46-.43-.48-.22-.25-.45-.51a103.31,103.31,0,0,1-7.7-9.9l-.21-.3-.41-.61-.59-.91-.39-.6c-5.88-9.18-9.35-18.24-9.42-26.61v-.28c0-8.73,3.71-18.2,10-27.79l.41-.6.4-.61.21-.3a105.16,105.16,0,0,1,7.71-9.91L28,146l.44-.49c.08-.08.15-.17.22-.25l.43-.46.41-.46a2.09,2.09,0,0,0,.2-.22l.4-.42.32-.34.46-.47.32-.34.06-.06.08-.09.09-.12,0,0,.06-.09.09-.16.07-.11v0l0,0,0,0v-.06l0-.09,0-.13.08-.48v-.23l0-.18,0-.2-.07-.22-.1-.23-.14-.23-.17-.23-.2-.2-.22-.18-.23-.14-.22-.1-.22-.08-.2,0-.18,0h-.23A40.52,40.52,0,0,0,0,151.94v7A37.45,37.45,0,0,1,24.08,143.65Z" transform="translate(0.25 0.25)"/><path class="d" d="M54.85,138.72h-.23l-.18,0-.2,0-.21.08-.23.1-.23.14-.22.18-.2.2-.17.23-.14.23-.09.23-.07.22,0,.2,0,.18V141l.08.48,0,.13,0,.09,0,.06v0l0,0,0,0,.06.11.1.16.05.09,0,0,.09.12.08.09.07.06.32.34.45.47.32.34.4.42.2.22.42.46.42.46c.08.08.15.17.22.25l.44.49.23.26a105.16,105.16,0,0,1,7.71,9.91l.2.3.41.61.4.6c6.29,9.59,10,19.06,10,27.79v.28c-.08,8.37-3.55,17.43-9.42,26.61l-.39.6-.6.91-.41.61-.2.3a105,105,0,0,1-7.71,9.9l-.45.51c-.07.08-.14.17-.22.25l-.43.48-.42.46-.41.44-.2.21-.39.42-.42.44-.28.29-.3.31-.12.15-.06.09-.13.2,0,.05,0,0,0,.07,0,.05,0,.1,0,.13-.11.4v.49l0,.21.06.24.11.26.14.26.19.25.23.23.26.19.25.14.25.1.23.06.21,0,.18,0h.08c23.56,0,42.57-21,42.57-46.77S78.41,138.72,54.85,138.72Zm5.62,88.61-.12,0,.1-.12a108.52,108.52,0,0,0,7.31-9.39l.35-.51c.15-.22.3-.43.44-.65L69,216c6.85-10.34,10.94-20.69,10.94-30.54v-.31c-.09-10.17-4.51-20.85-11.81-31.52a109.79,109.79,0,0,0-8-10.33l.27.31h.06c18.36,3,32.53,20.54,32.53,41.84S78.77,224.34,60.47,227.33Z" transform="translate(0.25 0.25)"/><path class="d" d="M59.64,198.87v-5.31a1.11,1.11,0,0,0-1.11-1.1H48a.24.24,0,0,1-.24-.24v-3.53a.24.24,0,0,1,.24-.24H58.53a1.11,1.11,0,0,0,1.11-1.11v-5.83a1.11,1.11,0,0,0-1.11-1.11H51.91a.23.23,0,0,1-.23-.24.2.2,0,0,1,0-.11l9.14-16.6a1.1,1.1,0,0,0-.44-1.5,1.14,1.14,0,0,0-.54-.14H51.18a1.1,1.1,0,0,0-1,.58l-7.85,14.52A.24.24,0,0,1,42,177a.2.2,0,0,1-.09-.09l-7.88-14.52a1.1,1.1,0,0,0-1-.58H24.61a1.11,1.11,0,0,0-1.11,1.11,1.18,1.18,0,0,0,.13.52l8.94,16.61a.24.24,0,0,1-.1.32.2.2,0,0,1-.11,0H25.69a1.1,1.1,0,0,0-1.1,1.11v5.83a1.11,1.11,0,0,0,1.1,1.11H36a.23.23,0,0,1,.23.24v3.53a.23.23,0,0,1-.23.24H25.69a1.1,1.1,0,0,0-1.1,1.1v5.31a1.1,1.1,0,0,0,1.1,1.11H36a.23.23,0,0,1,.23.24v7.84a1.11,1.11,0,0,0,1.11,1.11h9.29a1.1,1.1,0,0,0,1.11-1.11v-7.84A.24.24,0,0,1,48,200H58.53A1.11,1.11,0,0,0,59.64,198.87Z" transform="translate(0.25 0.25)"/><rect class="e" x="0.25" y="0.25" width="153.01" height="242.65" rx="9.25"/><text class="f" transform="translate(40.91 56.21)">Unofficial</text><text class="g" transform="translate(82.77 56.3)">CLUB</text><text class="h" transform="translate(41.52 77.17)">JPYC</text><text class="i" transform="translate(146.5 233.39) rotate(-90)"><tspan xml:space="preserve"> 0xf39fd6e51aad88f6f4ce6ab8827279cfffb92266</tspan></text><text class="i" transform="translate(136 233.39) rotate(-90)"><tspan xml:space="preserve"> Member's ID: 0</tspan></text></svg>